<svg xmlns="http://www.w3.org/2000/svg" xmlns:xlink="http://www.w3.org/1999/xlink" width="1004.209" height="919.366" viewBox="0 0 1004.209 919.366">
  <defs>
    <linearGradient id="linear-gradient" x1="0.5" y1="1" x2="0.5" gradientUnits="objectBoundingBox">
      <stop offset="0" stop-color="gray" stop-opacity="0.251"/>
      <stop offset="0.54" stop-color="gray" stop-opacity="0.122"/>
      <stop offset="1" stop-color="gray" stop-opacity="0.102"/>
    </linearGradient>
    <linearGradient id="linear-gradient-2" x1="0.5" x2="0.5" y2="1" gradientUnits="objectBoundingBox">
      <stop offset="0" stop-color="#e0e0e0"/>
      <stop offset="0.31" stop-color="#fccc63"/>
      <stop offset="0.77" stop-color="#f55f44"/>
    </linearGradient>
    <linearGradient id="linear-gradient-3" x1="0.5" y1="0" x2="0.5" y2="1" xlink:href="#linear-gradient-2"/>
    <linearGradient id="linear-gradient-7" x1="0.5" x2="0.5" y2="1" gradientUnits="objectBoundingBox">
      <stop offset="0" stop-color="#f2f2f2"/>
      <stop offset="0.31" stop-color="#e6e6e6"/>
      <stop offset="0.77" stop-color="#ccc"/>
    </linearGradient>
    <linearGradient id="linear-gradient-8" x1="0.5" x2="0.5" y2="0" xlink:href="#linear-gradient"/>
    <linearGradient id="linear-gradient-9" x1="0.5" x2="0.5" y2="1" gradientUnits="objectBoundingBox">
      <stop offset="0" stop-color="#f2f2f2"/>
      <stop offset="0.31" stop-color="#e0e0e0"/>
      <stop offset="0.77" stop-color="#b3b3b3"/>
    </linearGradient>
    <linearGradient id="linear-gradient-11" x1="0.5" y1="0" x2="0.5" y2="1" xlink:href="#linear-gradient-7"/>
    <linearGradient id="linear-gradient-12" x1="0.5" y1="0.999" x2="0.5" y2="-0.001" xlink:href="#linear-gradient"/>
    <linearGradient id="linear-gradient-14" x1="0.501" y1="1.001" x2="0.501" y2="0.001" xlink:href="#linear-gradient"/>
  </defs>
  <g id="rocketf" transform="translate(466.726 -180.927) rotate(45)">
    <g id="Group_1" data-name="Group 1" opacity="0.7">
      <path id="Path_1" data-name="Path 1" d="M722,411.58a150.57,150.57,0,0,0-17-70c-5.34-10.15-10.21-16.46-14-20.33A10,10,0,0,0,679.6,319a10.279,10.279,0,0,0-4,2.58c-5.07,5.25-9.65,12.19-13.65,19.58a151.15,151.15,0,0,0-17.87,71.92v15.06h-9.66v-175c0-36.68-8.21-72.87-24.29-105-7.62-15.21-14.57-24.66-19.92-30.47a13.81,13.81,0,0,0-20.76,0c-7.24,7.87-13.77,18.27-19.48,29.33-16.91,32.79-25.5,70-25.5,107.77V428.14h-8.35V412.36a151.15,151.15,0,0,0-17.87-71.92c-4-7.38-8.58-14.32-13.65-19.58a10,10,0,0,0-11.6-2.12l.35.19a10.31,10.31,0,0,0-3.26,2.28c-3.75,3.87-8.62,10.18-14,20.33a150.57,150.57,0,0,0-17,70V673.18h29.8l-3.25,21.51V759H490V694.69l-3.25-21.51h29.37V434.91h8.35v237.2h23.8l-3.42,22.57V759h24.37V694.69l-3.42-22.57h32.07l-3.42,22.57V759h24.37V694.69l-3.42-22.57h19V434.91h9.66V673.54h7.83v-.36h25.89l-3.25,21.51V759H698.9V694.69l-3.25-21.51H722Z" transform="translate(-137.41 -64.95)" fill="url(#linear-gradient)"/>
    </g>
    <path id="Path_2" data-name="Path 2" d="M357.44,617.2H334.37l4.12-28.01h14.83Z" fill="#535461"/>
    <g id="Group_2" data-name="Group 2" opacity="0.1">
      <path id="Path_3" data-name="Path 3" d="M337.34,600.31h17.13l-1.15-7.83H338.49Z"/>
    </g>
    <path id="Path_4" data-name="Path 4" d="M555.2,617.2H532.13l4.12-28.01h14.83Z" fill="#535461"/>
    <g id="Group_3" data-name="Group 3" opacity="0.1">
      <path id="Path_5" data-name="Path 5" d="M535.1,600.31h17.13l-1.15-7.83H536.25Z"/>
    </g>
    <path id="Path_6" data-name="Path 6" d="M432.43,617.2H409.35l4.12-28.01h14.84Z" fill="#535461"/>
    <g id="Group_4" data-name="Group 4" opacity="0.1">
      <path id="Path_7" data-name="Path 7" d="M412.32,600.31h17.14l-1.15-7.83H413.47Z"/>
    </g>
    <path id="Path_8" data-name="Path 8" d="M479.39,617.2H456.32l4.12-28.01h14.83Z" fill="#535461"/>
    <g id="Group_5" data-name="Group 5" opacity="0.1">
      <path id="Path_9" data-name="Path 9" d="M459.29,600.31h17.14l-1.16-7.83H460.44Z"/>
    </g>
    <rect id="Rectangle_1" data-name="Rectangle 1" width="164.8" height="6.59" transform="translate(357.44 357.64)" fill="#535461"/>
    <path id="Path_10" data-name="Path 10" d="M685.13,318.46a9.29,9.29,0,0,0-13.77,0c-4.8,5.11-9.13,11.87-12.92,19.06a150.58,150.58,0,0,0-16.91,70V661.21h72.93V406.47a150,150,0,0,0-16.11-68.21C693.29,328.38,688.68,322.23,685.13,318.46Z" transform="translate(-137.41 -64.95)" fill="#e0e0e0"/>
    <path id="Path_11" data-name="Path 11" d="M476,318.46a9.29,9.29,0,0,1,13.77,0c4.8,5.11,9.13,11.87,12.92,19.06a150.58,150.58,0,0,1,16.91,70V661.21H446.65V406.47a150,150,0,0,1,16.11-68.21C467.81,328.38,472.42,322.23,476,318.46Z" transform="translate(-137.41 -64.95)" fill="#e0e0e0"/>
    <path id="Path_12" data-name="Path 12" d="M309.65,346.93l17.3.08v21.34h-17.3Z" fill="#535461"/>
    <path id="Path_13" data-name="Path 13" d="M364.86,346.93l17.3.08v21.34h-17.3Z" fill="#535461"/>
    <path id="Path_14" data-name="Path 14" d="M504.11,346.93l17.31.08v21.34H504.11Z" fill="#535461"/>
    <path id="Path_15" data-name="Path 15" d="M559.32,346.93l17.31.08v21.34H559.32Z" fill="#535461"/>
    <g id="Group_6" data-name="Group 6" opacity="0.1">
      <path id="Path_16" data-name="Path 16" d="M502.66,337.19c-3.78-7.19-8.12-13.95-12.92-19.06a9.26,9.26,0,0,0-11-2.07,9.83,9.83,0,0,1,2.78,2.07c4.8,5.11,9.13,11.87,12.92,19.06a150.58,150.58,0,0,1,16.91,70V660.86h8.24V407.22a150.58,150.58,0,0,0-16.93-70.03Z" transform="translate(-137.41 -64.95)"/>
    </g>
    <g id="Group_7" data-name="Group 7" opacity="0.1">
      <path id="Path_17" data-name="Path 17" d="M665,337.89c3.78-7.19,8.12-13.95,12.92-19.06a9.8,9.8,0,0,1,3.19-2.28,9.27,9.27,0,0,0-10.6,2.28c-4.8,5.11-9.13,11.87-12.92,19.06a150.579,150.579,0,0,0-16.91,70V661.56h7.42V407.93A150.581,150.581,0,0,1,665,337.89Z" transform="translate(-137.41 -64.95)"/>
    </g>
    <rect id="Rectangle_2" data-name="Rectangle 2" width="23.07" height="62.62" transform="translate(334.37 617.2)" fill="url(#linear-gradient-2)"/>
    <rect id="Rectangle_3" data-name="Rectangle 3" width="23.07" height="62.62" transform="translate(409.35 617.2)" fill="url(#linear-gradient-3)"/>
    <rect id="Rectangle_4" data-name="Rectangle 4" width="23.07" height="62.62" transform="translate(456.32 617.2)" fill="url(#linear-gradient-3)"/>
    <rect id="Rectangle_5" data-name="Rectangle 5" width="23.07" height="62.62" transform="translate(532.13 617.2)" fill="url(#linear-gradient-3)"/>
    <path id="Path_18" data-name="Path 18" d="M589.7,119.56a12.84,12.84,0,0,0-19.65,0c-6.85,7.66-13,17.79-18.44,28.57-16,31.94-24.14,68.19-24.14,104.95V660.17H631.56V251.44c0-35.72-7.77-71-23-102.21C601.35,134.42,594.77,125.22,589.7,119.56Z" transform="translate(-137.41 -64.95)" fill="#eee"/>
    <rect id="Rectangle_6" data-name="Rectangle 6" width="54.31" height="24.89" rx="11" transform="translate(414.23 99.83)" fill="#6c63ff"/>
    <g id="Group_9" data-name="Group 9" opacity="0.7">
      <circle id="Ellipse_5" data-name="Ellipse 5" cx="13.36" cy="13.36" r="13.36" transform="translate(697.07 589.91)" fill="url(#linear-gradient)"/>
    </g>
    <circle id="Ellipse_6" data-name="Ellipse 6" cx="12.38" cy="12.38" r="12.38" transform="translate(698.05 590.89)" fill="url(#linear-gradient-7)"/>
    <g id="Group_10" data-name="Group 10" opacity="0.7">
      <circle id="Ellipse_7" data-name="Ellipse 7" cx="14.57" cy="14.57" r="14.57" transform="translate(757.04 717.61)" fill="url(#linear-gradient-8)"/>
    </g>
    <circle id="Ellipse_8" data-name="Ellipse 8" cx="13.84" cy="13.84" r="13.84" transform="translate(757.77 718.34)" fill="url(#linear-gradient-9)"/>
    <g id="Group_11" data-name="Group 11" opacity="0.7">
      <circle id="Ellipse_9" data-name="Ellipse 9" cx="16.01" cy="16.01" r="16.01" transform="translate(132.16 633.14)" fill="url(#linear-gradient)"/>
    </g>
    <circle id="Ellipse_10" data-name="Ellipse 10" cx="15.29" cy="15.29" r="15.29" transform="translate(132.88 633.86)" fill="url(#linear-gradient-11)"/>
    <g id="Group_12" data-name="Group 12" opacity="0.4">
      <path id="Path_25" data-name="Path 25" d="M888.73,82.42h0a44.331,44.331,0,0,0-13.08-11.58h0a43.92,43.92,0,1,0-22,82c.93,0,1.86,0,2.78-.09a43.91,43.91,0,0,0,32.28-70.28Z" transform="translate(-137.41 -64.95)" fill="url(#linear-gradient-12)"/>
    </g>
    <path id="Path_26" data-name="Path 26" d="M895.18,108.87A41.511,41.511,0,0,1,856.3,150.3c-.867.06-1.747.09-2.627.09a41.51,41.51,0,1,1,20.76-77.47h0A41.9,41.9,0,0,1,886.8,83.87h0A41.3,41.3,0,0,1,895.18,108.87Z" transform="translate(-137.41 -64.95)" fill="#6c63ff" opacity="0.2"/>
    <path id="Path_27" data-name="Path 27" d="M843.45,82.54a45.19,45.19,0,0,0-6.19,3.26,9.8,9.8,0,0,0-3.31,3,3.9,3.9,0,0,0-.08,4.23c1,1.38,3,1.6,4.67,1.69a8.86,8.86,0,0,0,8.48-2.8l3.57-3.24c1.24-1.12,2.6-2.67,2.06-4.25a3.587,3.587,0,0,0-3-2A12.59,12.59,0,0,0,840.72,84" transform="translate(-137.41 -64.95)" fill="#f55f44" opacity="0.05"/>
    <circle id="Ellipse_11" data-name="Ellipse 11" cx="2.18" cy="2.18" r="2.18" transform="translate(688.95 58.13)" fill="#f55f44" opacity="0.05"/>
    <circle id="Ellipse_12" data-name="Ellipse 12" cx="8.01" cy="8.01" r="8.01" transform="translate(727.55 38.46)" fill="#f55f44" opacity="0.05"/>
    <path id="Path_28" data-name="Path 28" d="M886.81,83.86h0a10.93,10.93,0,1,1-12.37-11h0a41.9,41.9,0,0,1,12.37,11Z" transform="translate(-137.41 -64.95)" fill="#f55f44" opacity="0.05"/>
    <path id="Path_29" data-name="Path 29" d="M887.61,132.78A41.41,41.41,0,0,1,856.3,150.3c-.05-.57-.08-1.15-.08-1.73a19.67,19.67,0,0,1,31.39-15.79Z" transform="translate(-137.41 -64.95)" fill="#f55f44" opacity="0.05"/>
    <circle id="Ellipse_13" data-name="Ellipse 13" cx="5.1" cy="5.1" r="5.1" transform="translate(717.71 339.62)" fill="#535461" opacity="0.25"/>
    <circle id="Ellipse_14" data-name="Ellipse 14" cx="5.1" cy="5.1" r="5.1" transform="translate(37.71 473.62)" fill="#535461" opacity="0.25"/>
    <circle id="Ellipse_15" data-name="Ellipse 15" cx="5.1" cy="5.1" r="5.1" transform="translate(914.71 502.62)" fill="#535461" opacity="0.25"/>
    <circle id="Ellipse_16" data-name="Ellipse 16" cx="5.1" cy="5.1" r="5.1" transform="translate(283.63 260.96)" fill="#535461" opacity="0.25"/>
    <circle id="Ellipse_17" data-name="Ellipse 17" cx="5.1" cy="5.1" r="5.1" transform="translate(266.88 143.7)" fill="#535461" opacity="0.25"/>
    <circle id="Ellipse_18" data-name="Ellipse 18" cx="5.1" cy="5.1" r="5.1" transform="translate(122.67 376.03)" fill="#535461" opacity="0.25"/>
    <path id="Path_30" data-name="Path 30" d="M849.18,387.12h-4.54v-4.53h-1.85v4.53h-4.54v1.86h4.54v4.53h1.85v-4.53h4.54Z" fill="#535461" opacity="0.25"/>
    <path id="Path_31" data-name="Path 31" d="M925.18,230.12h-4.54v-4.53h-1.85v4.53h-4.54v1.86h4.54v4.53h1.85v-4.53h4.54Z" fill="#535461" opacity="0.25"/>
    <path id="Path_32" data-name="Path 32" d="M601.55,142.41h-4.54v-4.54h-1.85v4.54h-4.54v1.85h4.54v4.54h1.85v-4.54h4.54Z" fill="#535461" opacity="0.25"/>
    <path id="Path_33" data-name="Path 33" d="M799.65,361.63h-4.54V357.1h-1.85v4.53h-4.53v1.86h4.53v4.53h1.85v-4.53h4.54Z" fill="#535461" opacity="0.25"/>
    <path id="Path_34" data-name="Path 34" d="M633.59,512.39h-4.53v-4.53h-1.85v4.53h-4.54v1.86h4.54v4.53h1.85v-4.53h4.53Z" fill="#535461" opacity="0.25"/>
    <path id="Path_35" data-name="Path 35" d="M168.93,201.4h-4.54v-4.53h-1.85v4.53H158v1.85h4.54v4.54h1.85v-4.54h4.54Z" fill="#535461" opacity="0.25"/>
    <path id="Path_36" data-name="Path 36" d="M10.93,260.4H6.39v-4.53H4.54v4.53H0v1.85H4.54v4.54H6.39v-4.54h4.54Z" fill="#535461" opacity="0.25"/>
    <path id="Path_37" data-name="Path 37" d="M231.56,446.12h-4.54v-4.54h-1.85v4.54h-4.53v1.85h4.53v4.54h1.85v-4.54h4.54Z" fill="#535461" opacity="0.25"/>
    <circle id="Ellipse_19" data-name="Ellipse 19" cx="13.84" cy="13.84" r="13.84" transform="translate(757.77 718.34)" fill="url(#linear-gradient-7)"/>
    <g id="Group_13" data-name="Group 13" opacity="0.4">
      <path id="Path_38" data-name="Path 38" d="M406.37,413.27h0a21.109,21.109,0,0,0-6.23-5.52h0a20.92,20.92,0,1,0-10.46,39H391a20.92,20.92,0,0,0,15.37-33.47Z" transform="translate(-137.41 -64.95)" fill="url(#linear-gradient-14)"/>
    </g>
    <path id="Path_39" data-name="Path 39" d="M409.44,425.87a19.77,19.77,0,0,1-18.52,19.73h-1.25a19.77,19.77,0,1,1,9.89-36.9h0a20,20,0,0,1,5.89,5.21h0a19.67,19.67,0,0,1,3.99,11.96Z" transform="translate(-137.41 -64.95)" fill="#6c63ff" opacity="0.2"/>
    <path id="Path_40" data-name="Path 40" d="M384.8,413.33a21.518,21.518,0,0,0-3,1.55,4.67,4.67,0,0,0-1.58,1.41,1.86,1.86,0,0,0,0,2,2.83,2.83,0,0,0,2.22.8,4.22,4.22,0,0,0,4-1.33l1.7-1.54c.59-.54,1.24-1.27,1-2a1.79,1.79,0,0,0-1.44-1,6,6,0,0,0-4.25.75" transform="translate(-137.41 -64.95)" fill="#f55f44" opacity="0.1"/>
    <circle id="Ellipse_20" data-name="Ellipse 20" cx="1.04" cy="1.04" r="1.04" transform="translate(239.25 367.68)" fill="#f55f44" opacity="0.1"/>
    <circle id="Ellipse_21" data-name="Ellipse 21" cx="3.82" cy="3.82" r="3.82" transform="translate(257.63 358.31)" fill="#f55f44" opacity="0.1"/>
    <path id="Path_41" data-name="Path 41" d="M405.45,414h0a5.2,5.2,0,1,1-5.89-5.22h0a20,20,0,0,1,5.89,5.22Z" transform="translate(-137.41 -64.95)" fill="#f55f44" opacity="0.1"/>
    <path id="Path_42" data-name="Path 42" d="M405.84,437.26a19.72,19.72,0,0,1-14.91,8.35c0-.27,0-.55,0-.83a9.37,9.37,0,0,1,15-7.52Z" transform="translate(-137.41 -64.95)" fill="#f55f44" opacity="0.1"/>
    <g id="Group_14" data-name="Group 14" opacity="0.1">
      <rect id="Rectangle_7" data-name="Rectangle 7" width="103" height="4" transform="translate(390.59 202.05)"/>
    </g>
    <rect id="Rectangle_8" data-name="Rectangle 8" width="222" height="303" transform="translate(337 694.05)" fill="rgba(207,199,199,0.08)"/>
  </g>
</svg>
